<svg fill="currentColor" viewBox="0 0 80 80" xmlns="http://www.w3.org/2000/svg"><rect fill="#fff" height="80" rx="17.8641" width="80"/><g fill="#2e2e2e"><circle cx="58.8348" cy="56.505" r="4.85437"/><path clip-rule="evenodd" d="m20.9707 23.0906c0-2.4576 1.9923-4.4499 4.4498-4.4499 2.4576 0 4.4499 1.9923 4.4499 4.4499v26.699c0 2.4576-1.9923 4.4499-4.4499 4.4499-2.4575 0-4.4498-1.9923-4.4498-4.4499zm19.5793 7.12c0-2.4575 1.9923-4.4498 4.4498-4.4498 2.4576 0 4.4499 1.9923 4.4499 4.4498v26.6991c0 2.4576-1.9923 4.4498-4.4499 4.4498-2.4575 0-4.4498-1.9923-4.4498-4.4498v-10.2347c0-1.3431-.8197-2.5501-2.068-3.0455l-.3721-.1477c-2.0263-.8041-4.2902-.7638-6.2867.1118-1.1865.5204-1.9528 1.6933-1.9528 2.9889v-13.1644c0 1.2956.7663 2.4685 1.9528 2.9888 1.9965.8757 4.2604.9159 6.2867.1118l.3721-.1476c1.2484-.4954 2.068-1.7025 2.068-3.0456z" fill-rule="evenodd"/></g></svg>
